<?xml version="1.0" encoding="UTF-8" standalone="no"?>
<!DOCTYPE svg PUBLIC "-//W3C//DTD SVG 1.1//EN"
 "http://www.w3.org/Graphics/SVG/1.1/DTD/svg11.dtd">
<!-- Generated by graphviz version 2.40.1 (20161225.0304)
 -->
<!-- Title: %3 Pages: 1 -->
<svg width="281pt" height="332pt"
 viewBox="0.00 0.00 280.99 332.00" xmlns="http://www.w3.org/2000/svg" xmlns:xlink="http://www.w3.org/1999/xlink">
<g id="graph0" class="graph" transform="scale(1 1) rotate(0) translate(4 328)">
<title>%3</title>
<polygon fill="#ffffff" stroke="transparent" points="-4,4 -4,-328 276.9919,-328 276.9919,4 -4,4"/>
<!-- _0 -->
<g id="node1" class="node">
<title>_0</title>
<ellipse fill="none" stroke="#000000" cx="154.496" cy="-306" rx="34.394" ry="18"/>
<text text-anchor="middle" x="154.496" y="-302.3" font-family="Times,serif" font-size="14.00" fill="#000000">Edge</text>
</g>
<!-- _1 -->
<g id="node2" class="node">
<title>_1</title>
<ellipse fill="none" stroke="#000000" cx="45.496" cy="-234" rx="45.4919" ry="18"/>
<text text-anchor="middle" x="45.496" y="-230.3" font-family="Times,serif" font-size="14.00" fill="#000000">Edge_0</text>
</g>
<!-- _0&#45;&gt;_1 -->
<g id="edge1" class="edge">
<title>_0&#45;&gt;_1</title>
<path fill="none" stroke="#000000" d="M132.9611,-291.7751C117.1789,-281.3502 95.4892,-267.023 77.6576,-255.2444"/>
<polygon fill="#000000" stroke="#000000" points="79.5296,-252.2863 69.2566,-249.6951 75.6715,-258.1271 79.5296,-252.2863"/>
</g>
<!-- _2 -->
<g id="node3" class="node">
<title>_2</title>
<ellipse fill="none" stroke="#000000" cx="154.496" cy="-234" rx="45.4919" ry="18"/>
<text text-anchor="middle" x="154.496" y="-230.3" font-family="Times,serif" font-size="14.00" fill="#000000">Edge_1</text>
</g>
<!-- _0&#45;&gt;_2 -->
<g id="edge2" class="edge">
<title>_0&#45;&gt;_2</title>
<path fill="none" stroke="#000000" d="M154.496,-287.8314C154.496,-280.131 154.496,-270.9743 154.496,-262.4166"/>
<polygon fill="#000000" stroke="#000000" points="157.9961,-262.4132 154.496,-252.4133 150.9961,-262.4133 157.9961,-262.4132"/>
</g>
<!-- _3 -->
<g id="node4" class="node">
<title>_3</title>
<ellipse fill="none" stroke="#000000" cx="227.496" cy="-162" rx="45.4919" ry="18"/>
<text text-anchor="middle" x="227.496" y="-158.3" font-family="Times,serif" font-size="14.00" fill="#000000">Edge_2</text>
</g>
<!-- _0&#45;&gt;_3 -->
<g id="edge3" class="edge">
<title>_0&#45;&gt;_3</title>
<path fill="none" stroke="#000000" d="M174.3605,-291.0947C186.0596,-281.262 200.1559,-267.3859 208.496,-252 218.8019,-232.9875 223.5211,-208.905 225.6804,-190.4368"/>
<polygon fill="#000000" stroke="#000000" points="229.1824,-190.5873 226.6788,-180.2925 222.216,-189.9016 229.1824,-190.5873"/>
</g>
<!-- _4 -->
<g id="node5" class="node">
<title>_4</title>
<ellipse fill="none" stroke="#000000" cx="65.496" cy="-162" rx="42.4939" ry="18"/>
<text text-anchor="middle" x="65.496" y="-158.3" font-family="Times,serif" font-size="14.00" fill="#000000">Path_0</text>
</g>
<!-- _1&#45;&gt;_4 -->
<g id="edge4" class="edge">
<title>_1&#45;&gt;_4</title>
<path fill="none" stroke="#000000" d="M50.5428,-215.8314C52.7386,-207.9266 55.3606,-198.4872 57.7914,-189.7365"/>
<polygon fill="#000000" stroke="#000000" points="61.2158,-190.4854 60.52,-179.9134 54.4712,-188.6118 61.2158,-190.4854"/>
</g>
<!-- _5 -->
<g id="node6" class="node">
<title>_5</title>
<ellipse fill="none" stroke="#000000" cx="154.496" cy="-90" rx="42.4939" ry="18"/>
<text text-anchor="middle" x="154.496" y="-86.3" font-family="Times,serif" font-size="14.00" fill="#000000">Path_1</text>
</g>
<!-- _2&#45;&gt;_5 -->
<g id="edge5" class="edge">
<title>_2&#45;&gt;_5</title>
<path fill="none" stroke="#000000" d="M154.496,-215.7623C154.496,-191.201 154.496,-147.2474 154.496,-118.3541"/>
<polygon fill="#000000" stroke="#000000" points="157.9961,-118.0896 154.496,-108.0896 150.9961,-118.0897 157.9961,-118.0896"/>
</g>
<!-- _6 -->
<g id="node7" class="node">
<title>_6</title>
<ellipse fill="none" stroke="#000000" cx="189.496" cy="-18" rx="31.6951" ry="18"/>
<text text-anchor="middle" x="189.496" y="-14.3" font-family="Times,serif" font-size="14.00" fill="#000000">Path</text>
</g>
<!-- _3&#45;&gt;_6 -->
<g id="edge6" class="edge">
<title>_3&#45;&gt;_6</title>
<path fill="none" stroke="#000000" d="M223.3671,-144.005C219.1246,-125.7901 212.2091,-96.8451 205.496,-72 203.175,-63.4102 200.4823,-54.1039 197.9756,-45.6758"/>
<polygon fill="#000000" stroke="#000000" points="201.2789,-44.5067 195.0475,-35.9382 194.5754,-46.5225 201.2789,-44.5067"/>
</g>
<!-- _4&#45;&gt;_5 -->
<g id="edge7" class="edge">
<title>_4&#45;&gt;_5</title>
<path fill="none" stroke="#000000" d="M85.2479,-146.0209C97.4618,-136.14 113.3228,-123.3086 126.7828,-112.4197"/>
<polygon fill="#000000" stroke="#000000" points="129.226,-114.945 134.7992,-105.9345 124.8234,-109.5029 129.226,-114.945"/>
</g>
<!-- _5&#45;&gt;_6 -->
<g id="edge8" class="edge">
<title>_5&#45;&gt;_6</title>
<path fill="none" stroke="#000000" d="M163.1477,-72.2022C167.1741,-63.9192 172.0487,-53.8915 176.5047,-44.7248"/>
<polygon fill="#000000" stroke="#000000" points="179.7196,-46.1169 180.9438,-35.593 173.424,-43.0565 179.7196,-46.1169"/>
</g>
</g>
</svg>
