<?xml version="1.0" encoding="UTF-8" standalone="no"?>
<!DOCTYPE svg PUBLIC "-//W3C//DTD SVG 1.1//EN"
 "http://www.w3.org/Graphics/SVG/1.1/DTD/svg11.dtd">
<!-- Generated by graphviz version 2.40.1 (20161225.0304)
 -->
<!-- Title: %3 Pages: 1 -->
<svg width="307pt" height="260pt"
 viewBox="0.00 0.00 306.99 260.00" xmlns="http://www.w3.org/2000/svg" xmlns:xlink="http://www.w3.org/1999/xlink">
<g id="graph0" class="graph" transform="scale(1 1) rotate(0) translate(4 256)">
<title>%3</title>
<polygon fill="#ffffff" stroke="transparent" points="-4,4 -4,-256 302.9919,-256 302.9919,4 -4,4"/>
<!-- _0 -->
<g id="node1" class="node">
<title>_0</title>
<ellipse fill="none" stroke="#000000" cx="154.496" cy="-234" rx="34.394" ry="18"/>
<text text-anchor="middle" x="154.496" y="-230.3" font-family="Times,serif" font-size="14.00" fill="#000000">Edge</text>
</g>
<!-- _1 -->
<g id="node2" class="node">
<title>_1</title>
<ellipse fill="none" stroke="#000000" cx="45.496" cy="-162" rx="45.4919" ry="18"/>
<text text-anchor="middle" x="45.496" y="-158.3" font-family="Times,serif" font-size="14.00" fill="#000000">Edge_0</text>
</g>
<!-- _0&#45;&gt;_1 -->
<g id="edge1" class="edge">
<title>_0&#45;&gt;_1</title>
<path fill="none" stroke="#000000" d="M132.9611,-219.7751C117.1789,-209.3502 95.4892,-195.023 77.6576,-183.2444"/>
<polygon fill="#000000" stroke="#000000" points="79.5296,-180.2863 69.2566,-177.6951 75.6715,-186.1271 79.5296,-180.2863"/>
</g>
<!-- _2 -->
<g id="node3" class="node">
<title>_2</title>
<ellipse fill="none" stroke="#000000" cx="154.496" cy="-162" rx="45.4919" ry="18"/>
<text text-anchor="middle" x="154.496" y="-158.3" font-family="Times,serif" font-size="14.00" fill="#000000">Edge_1</text>
</g>
<!-- _0&#45;&gt;_2 -->
<g id="edge2" class="edge">
<title>_0&#45;&gt;_2</title>
<path fill="none" stroke="#000000" d="M154.496,-215.8314C154.496,-208.131 154.496,-198.9743 154.496,-190.4166"/>
<polygon fill="#000000" stroke="#000000" points="157.9961,-190.4132 154.496,-180.4133 150.9961,-190.4133 157.9961,-190.4132"/>
</g>
<!-- _3 -->
<g id="node4" class="node">
<title>_3</title>
<ellipse fill="none" stroke="#000000" cx="253.496" cy="-90" rx="45.4919" ry="18"/>
<text text-anchor="middle" x="253.496" y="-86.3" font-family="Times,serif" font-size="14.00" fill="#000000">Edge_2</text>
</g>
<!-- _0&#45;&gt;_3 -->
<g id="edge3" class="edge">
<title>_0&#45;&gt;_3</title>
<path fill="none" stroke="#000000" d="M172.7742,-218.4882C184.013,-208.3215 198.1855,-194.305 208.496,-180 222.6091,-160.4191 234.5963,-135.7579 242.6413,-117.2041"/>
<polygon fill="#000000" stroke="#000000" points="245.9223,-118.4312 246.5864,-107.8572 239.4732,-115.7092 245.9223,-118.4312"/>
</g>
<!-- _4 -->
<g id="node5" class="node">
<title>_4</title>
<ellipse fill="none" stroke="#000000" cx="45.496" cy="-90" rx="42.4939" ry="18"/>
<text text-anchor="middle" x="45.496" y="-86.3" font-family="Times,serif" font-size="14.00" fill="#000000">Path_0</text>
</g>
<!-- _1&#45;&gt;_4 -->
<g id="edge4" class="edge">
<title>_1&#45;&gt;_4</title>
<path fill="none" stroke="#000000" d="M45.496,-143.8314C45.496,-136.131 45.496,-126.9743 45.496,-118.4166"/>
<polygon fill="#000000" stroke="#000000" points="48.9961,-118.4132 45.496,-108.4133 41.9961,-118.4133 48.9961,-118.4132"/>
</g>
<!-- _5 -->
<g id="node6" class="node">
<title>_5</title>
<ellipse fill="none" stroke="#000000" cx="147.496" cy="-90" rx="42.4939" ry="18"/>
<text text-anchor="middle" x="147.496" y="-86.3" font-family="Times,serif" font-size="14.00" fill="#000000">Path_1</text>
</g>
<!-- _2&#45;&gt;_5 -->
<g id="edge5" class="edge">
<title>_2&#45;&gt;_5</title>
<path fill="none" stroke="#000000" d="M152.7296,-143.8314C151.9809,-136.131 151.0907,-126.9743 150.2587,-118.4166"/>
<polygon fill="#000000" stroke="#000000" points="153.7375,-118.0276 149.2861,-108.4133 146.7703,-118.7051 153.7375,-118.0276"/>
</g>
<!-- _6 -->
<g id="node7" class="node">
<title>_6</title>
<ellipse fill="none" stroke="#000000" cx="147.496" cy="-18" rx="31.6951" ry="18"/>
<text text-anchor="middle" x="147.496" y="-14.3" font-family="Times,serif" font-size="14.00" fill="#000000">Path</text>
</g>
<!-- _3&#45;&gt;_6 -->
<g id="edge6" class="edge">
<title>_3&#45;&gt;_6</title>
<path fill="none" stroke="#000000" d="M230.4955,-74.3771C214.6291,-63.5998 193.4141,-49.1897 176.4046,-37.636"/>
<polygon fill="#000000" stroke="#000000" points="178.1824,-34.6126 167.9436,-31.889 174.2492,-40.4031 178.1824,-34.6126"/>
</g>
<!-- _4&#45;&gt;_6 -->
<g id="edge7" class="edge">
<title>_4&#45;&gt;_6</title>
<path fill="none" stroke="#000000" d="M67.3775,-74.5542C82.3923,-63.9555 102.4709,-49.7824 118.7712,-38.2763"/>
<polygon fill="#000000" stroke="#000000" points="121.2308,-40.8243 127.3821,-32.198 117.194,-35.1055 121.2308,-40.8243"/>
</g>
<!-- _5&#45;&gt;_6 -->
<g id="edge8" class="edge">
<title>_5&#45;&gt;_6</title>
<path fill="none" stroke="#000000" d="M147.496,-71.8314C147.496,-64.131 147.496,-54.9743 147.496,-46.4166"/>
<polygon fill="#000000" stroke="#000000" points="150.9961,-46.4132 147.496,-36.4133 143.9961,-46.4133 150.9961,-46.4132"/>
</g>
</g>
</svg>
