<?xml version="1.0" encoding="UTF-8" standalone="no"?>
<!DOCTYPE svg PUBLIC "-//W3C//DTD SVG 1.1//EN"
 "http://www.w3.org/Graphics/SVG/1.1/DTD/svg11.dtd">
<!-- Generated by graphviz version 2.40.1 (20161225.0304)
 -->
<!-- Title: %3 Pages: 1 -->
<svg width="331pt" height="260pt"
 viewBox="0.00 0.00 331.07 260.00" xmlns="http://www.w3.org/2000/svg" xmlns:xlink="http://www.w3.org/1999/xlink">
<g id="graph0" class="graph" transform="scale(1 1) rotate(0) translate(4 256)">
<title>%3</title>
<polygon fill="#ffffff" stroke="transparent" points="-4,4 -4,-256 327.0654,-256 327.0654,4 -4,4"/>
<!-- _0 -->
<g id="node1" class="node">
<title>_0</title>
<ellipse fill="none" stroke="#000000" cx="208.496" cy="-234" rx="34.394" ry="18"/>
<text text-anchor="middle" x="208.496" y="-230.3" font-family="Times,serif" font-size="14.00" fill="#000000">Edge</text>
</g>
<!-- _1 -->
<g id="node2" class="node">
<title>_1</title>
<ellipse fill="none" stroke="#000000" cx="45.496" cy="-162" rx="45.4919" ry="18"/>
<text text-anchor="middle" x="45.496" y="-158.3" font-family="Times,serif" font-size="14.00" fill="#000000">Edge_0</text>
</g>
<!-- _0&#45;&gt;_1 -->
<g id="edge1" class="edge">
<title>_0&#45;&gt;_1</title>
<path fill="none" stroke="#000000" d="M181.9444,-222.2717C155.7332,-210.6938 115.3287,-192.8464 85.2812,-179.5738"/>
<polygon fill="#000000" stroke="#000000" points="86.4821,-176.2781 75.9205,-175.4391 83.6537,-182.6813 86.4821,-176.2781"/>
</g>
<!-- _2 -->
<g id="node3" class="node">
<title>_2</title>
<ellipse fill="none" stroke="#000000" cx="154.496" cy="-162" rx="45.4919" ry="18"/>
<text text-anchor="middle" x="154.496" y="-158.3" font-family="Times,serif" font-size="14.00" fill="#000000">Edge_1</text>
</g>
<!-- _0&#45;&gt;_2 -->
<g id="edge2" class="edge">
<title>_0&#45;&gt;_2</title>
<path fill="none" stroke="#000000" d="M195.6987,-216.937C189.1374,-208.1886 181.0118,-197.3545 173.7151,-187.6256"/>
<polygon fill="#000000" stroke="#000000" points="176.3765,-185.3407 167.5765,-179.4407 170.7765,-189.5407 176.3765,-185.3407"/>
</g>
<!-- _3 -->
<g id="node4" class="node">
<title>_3</title>
<ellipse fill="none" stroke="#000000" cx="263.496" cy="-162" rx="45.4919" ry="18"/>
<text text-anchor="middle" x="263.496" y="-158.3" font-family="Times,serif" font-size="14.00" fill="#000000">Edge_2</text>
</g>
<!-- _0&#45;&gt;_3 -->
<g id="edge3" class="edge">
<title>_0&#45;&gt;_3</title>
<path fill="none" stroke="#000000" d="M221.5302,-216.937C228.213,-208.1886 236.4891,-197.3545 243.9209,-187.6256"/>
<polygon fill="#000000" stroke="#000000" points="246.8841,-189.5121 250.1732,-179.4407 241.3214,-185.2627 246.8841,-189.5121"/>
</g>
<!-- _7 -->
<g id="node8" class="node">
<title>_7</title>
<ellipse fill="none" stroke="#000000" cx="209.496" cy="-18" rx="31.6951" ry="18"/>
<text text-anchor="middle" x="209.496" y="-14.3" font-family="Times,serif" font-size="14.00" fill="#000000">Path</text>
</g>
<!-- _0&#45;&gt;_7 -->
<g id="edge4" class="edge">
<title>_0&#45;&gt;_7</title>
<path fill="none" stroke="#000000" d="M240.75,-227.6672C266.4713,-220.7364 300.8481,-206.8264 317.496,-180 327.5317,-163.8284 322.3083,-88.3771 311.496,-72 297.0712,-50.1512 270.7989,-36.5382 248.5311,-28.4456"/>
<polygon fill="#000000" stroke="#000000" points="249.5541,-25.0969 238.9598,-25.2068 247.3103,-31.7276 249.5541,-25.0969"/>
</g>
<!-- _4 -->
<g id="node5" class="node">
<title>_4</title>
<ellipse fill="none" stroke="#000000" cx="51.496" cy="-90" rx="42.4939" ry="18"/>
<text text-anchor="middle" x="51.496" y="-86.3" font-family="Times,serif" font-size="14.00" fill="#000000">Path_0</text>
</g>
<!-- _1&#45;&gt;_4 -->
<g id="edge5" class="edge">
<title>_1&#45;&gt;_4</title>
<path fill="none" stroke="#000000" d="M47.01,-143.8314C47.6517,-136.131 48.4148,-126.9743 49.1279,-118.4166"/>
<polygon fill="#000000" stroke="#000000" points="52.6189,-118.6694 49.9615,-108.4133 45.6431,-118.088 52.6189,-118.6694"/>
</g>
<!-- _5 -->
<g id="node6" class="node">
<title>_5</title>
<ellipse fill="none" stroke="#000000" cx="156.496" cy="-90" rx="42.4939" ry="18"/>
<text text-anchor="middle" x="156.496" y="-86.3" font-family="Times,serif" font-size="14.00" fill="#000000">Path_1</text>
</g>
<!-- _2&#45;&gt;_5 -->
<g id="edge6" class="edge">
<title>_2&#45;&gt;_5</title>
<path fill="none" stroke="#000000" d="M155.0006,-143.8314C155.2145,-136.131 155.4689,-126.9743 155.7066,-118.4166"/>
<polygon fill="#000000" stroke="#000000" points="159.2054,-118.5066 155.9845,-108.4133 152.2081,-118.3122 159.2054,-118.5066"/>
</g>
<!-- _6 -->
<g id="node7" class="node">
<title>_6</title>
<ellipse fill="none" stroke="#000000" cx="260.496" cy="-90" rx="42.4939" ry="18"/>
<text text-anchor="middle" x="260.496" y="-86.3" font-family="Times,serif" font-size="14.00" fill="#000000">Path_2</text>
</g>
<!-- _3&#45;&gt;_6 -->
<g id="edge7" class="edge">
<title>_3&#45;&gt;_6</title>
<path fill="none" stroke="#000000" d="M262.7389,-143.8314C262.4181,-136.131 262.0366,-126.9743 261.68,-118.4166"/>
<polygon fill="#000000" stroke="#000000" points="265.1765,-118.2589 261.2632,-108.4133 258.1826,-118.5503 265.1765,-118.2589"/>
</g>
<!-- _4&#45;&gt;_7 -->
<g id="edge8" class="edge">
<title>_4&#45;&gt;_7</title>
<path fill="none" stroke="#000000" d="M80.4756,-76.7941C107.2891,-64.5753 147.1627,-46.405 175.4761,-33.5027"/>
<polygon fill="#000000" stroke="#000000" points="176.9509,-36.677 184.5993,-29.3453 174.0482,-30.3072 176.9509,-36.677"/>
</g>
<!-- _5&#45;&gt;_7 -->
<g id="edge9" class="edge">
<title>_5&#45;&gt;_7</title>
<path fill="none" stroke="#000000" d="M169.3258,-72.5708C175.8656,-63.6866 183.9349,-52.7245 191.1216,-42.9615"/>
<polygon fill="#000000" stroke="#000000" points="194.0397,-44.9012 197.1492,-34.7729 188.4023,-40.7514 194.0397,-44.9012"/>
</g>
<!-- _6&#45;&gt;_7 -->
<g id="edge10" class="edge">
<title>_6&#45;&gt;_7</title>
<path fill="none" stroke="#000000" d="M248.1503,-72.5708C241.8573,-63.6866 234.0925,-52.7245 227.177,-42.9615"/>
<polygon fill="#000000" stroke="#000000" points="230.0131,-40.9101 221.3768,-34.7729 224.3009,-44.9563 230.0131,-40.9101"/>
</g>
</g>
</svg>
