<?xml version="1.0" encoding="UTF-8" standalone="no"?>
<!DOCTYPE svg PUBLIC "-//W3C//DTD SVG 1.1//EN"
 "http://www.w3.org/Graphics/SVG/1.1/DTD/svg11.dtd">
<!-- Generated by graphviz version 2.40.1 (20161225.0304)
 -->
<!-- Title: %3 Pages: 1 -->
<svg width="317pt" height="332pt"
 viewBox="0.00 0.00 316.99 332.00" xmlns="http://www.w3.org/2000/svg" xmlns:xlink="http://www.w3.org/1999/xlink">
<g id="graph0" class="graph" transform="scale(1 1) rotate(0) translate(4 328)">
<title>%3</title>
<polygon fill="#ffffff" stroke="transparent" points="-4,4 -4,-328 312.9919,-328 312.9919,4 -4,4"/>
<!-- _0 -->
<g id="node1" class="node">
<title>_0</title>
<ellipse fill="none" stroke="#000000" cx="154.496" cy="-306" rx="34.394" ry="18"/>
<text text-anchor="middle" x="154.496" y="-302.3" font-family="Times,serif" font-size="14.00" fill="#000000">Edge</text>
</g>
<!-- _1 -->
<g id="node2" class="node">
<title>_1</title>
<ellipse fill="none" stroke="#000000" cx="45.496" cy="-234" rx="45.4919" ry="18"/>
<text text-anchor="middle" x="45.496" y="-230.3" font-family="Times,serif" font-size="14.00" fill="#000000">Edge_0</text>
</g>
<!-- _0&#45;&gt;_1 -->
<g id="edge1" class="edge">
<title>_0&#45;&gt;_1</title>
<path fill="none" stroke="#000000" d="M132.9611,-291.7751C117.1789,-281.3502 95.4892,-267.023 77.6576,-255.2444"/>
<polygon fill="#000000" stroke="#000000" points="79.5296,-252.2863 69.2566,-249.6951 75.6715,-258.1271 79.5296,-252.2863"/>
</g>
<!-- _2 -->
<g id="node3" class="node">
<title>_2</title>
<ellipse fill="none" stroke="#000000" cx="154.496" cy="-234" rx="45.4919" ry="18"/>
<text text-anchor="middle" x="154.496" y="-230.3" font-family="Times,serif" font-size="14.00" fill="#000000">Edge_1</text>
</g>
<!-- _0&#45;&gt;_2 -->
<g id="edge2" class="edge">
<title>_0&#45;&gt;_2</title>
<path fill="none" stroke="#000000" d="M154.496,-287.8314C154.496,-280.131 154.496,-270.9743 154.496,-262.4166"/>
<polygon fill="#000000" stroke="#000000" points="157.9961,-262.4132 154.496,-252.4133 150.9961,-262.4133 157.9961,-262.4132"/>
</g>
<!-- _3 -->
<g id="node4" class="node">
<title>_3</title>
<ellipse fill="none" stroke="#000000" cx="263.496" cy="-234" rx="45.4919" ry="18"/>
<text text-anchor="middle" x="263.496" y="-230.3" font-family="Times,serif" font-size="14.00" fill="#000000">Edge_2</text>
</g>
<!-- _0&#45;&gt;_3 -->
<g id="edge3" class="edge">
<title>_0&#45;&gt;_3</title>
<path fill="none" stroke="#000000" d="M176.0309,-291.7751C191.813,-281.3502 213.5027,-267.023 231.3344,-255.2444"/>
<polygon fill="#000000" stroke="#000000" points="233.3205,-258.1271 239.7354,-249.6951 229.4623,-252.2863 233.3205,-258.1271"/>
</g>
<!-- _4 -->
<g id="node5" class="node">
<title>_4</title>
<ellipse fill="none" stroke="#000000" cx="49.496" cy="-162" rx="42.4939" ry="18"/>
<text text-anchor="middle" x="49.496" y="-158.3" font-family="Times,serif" font-size="14.00" fill="#000000">Path_0</text>
</g>
<!-- _1&#45;&gt;_4 -->
<g id="edge4" class="edge">
<title>_1&#45;&gt;_4</title>
<path fill="none" stroke="#000000" d="M46.5053,-215.8314C46.9331,-208.131 47.4418,-198.9743 47.9173,-190.4166"/>
<polygon fill="#000000" stroke="#000000" points="51.4128,-190.592 48.473,-180.4133 44.4236,-190.2037 51.4128,-190.592"/>
</g>
<!-- _5 -->
<g id="node6" class="node">
<title>_5</title>
<ellipse fill="none" stroke="#000000" cx="154.496" cy="-162" rx="42.4939" ry="18"/>
<text text-anchor="middle" x="154.496" y="-158.3" font-family="Times,serif" font-size="14.00" fill="#000000">Path_1</text>
</g>
<!-- _2&#45;&gt;_5 -->
<g id="edge5" class="edge">
<title>_2&#45;&gt;_5</title>
<path fill="none" stroke="#000000" d="M154.496,-215.8314C154.496,-208.131 154.496,-198.9743 154.496,-190.4166"/>
<polygon fill="#000000" stroke="#000000" points="157.9961,-190.4132 154.496,-180.4133 150.9961,-190.4133 157.9961,-190.4132"/>
</g>
<!-- _7 -->
<g id="node8" class="node">
<title>_7</title>
<ellipse fill="none" stroke="#000000" cx="259.496" cy="-162" rx="42.4939" ry="18"/>
<text text-anchor="middle" x="259.496" y="-158.3" font-family="Times,serif" font-size="14.00" fill="#000000">Path_2</text>
</g>
<!-- _3&#45;&gt;_7 -->
<g id="edge6" class="edge">
<title>_3&#45;&gt;_7</title>
<path fill="none" stroke="#000000" d="M262.4866,-215.8314C262.0588,-208.131 261.5501,-198.9743 261.0747,-190.4166"/>
<polygon fill="#000000" stroke="#000000" points="264.5683,-190.2037 260.5189,-180.4133 257.5791,-190.592 264.5683,-190.2037"/>
</g>
<!-- _6 -->
<g id="node7" class="node">
<title>_6</title>
<ellipse fill="none" stroke="#000000" cx="94.496" cy="-90" rx="48.1917" ry="18"/>
<text text-anchor="middle" x="94.496" y="-86.3" font-family="Times,serif" font-size="14.00" fill="#000000">Path_01</text>
</g>
<!-- _4&#45;&gt;_6 -->
<g id="edge7" class="edge">
<title>_4&#45;&gt;_6</title>
<path fill="none" stroke="#000000" d="M60.3892,-144.5708C65.672,-136.1184 72.1303,-125.7851 78.0003,-116.3931"/>
<polygon fill="#000000" stroke="#000000" points="81.0584,-118.1039 83.3904,-107.7689 75.1224,-114.3939 81.0584,-118.1039"/>
</g>
<!-- _5&#45;&gt;_6 -->
<g id="edge8" class="edge">
<title>_5&#45;&gt;_6</title>
<path fill="none" stroke="#000000" d="M140.2768,-144.937C132.9128,-136.1003 123.7755,-125.1354 115.6052,-115.3311"/>
<polygon fill="#000000" stroke="#000000" points="118.1205,-112.8823 109.0299,-107.4407 112.743,-117.3636 118.1205,-112.8823"/>
</g>
<!-- _8 -->
<g id="node9" class="node">
<title>_8</title>
<ellipse fill="none" stroke="#000000" cx="208.496" cy="-90" rx="48.1917" ry="18"/>
<text text-anchor="middle" x="208.496" y="-86.3" font-family="Times,serif" font-size="14.00" fill="#000000">Path_12</text>
</g>
<!-- _5&#45;&gt;_8 -->
<g id="edge9" class="edge">
<title>_5&#45;&gt;_8</title>
<path fill="none" stroke="#000000" d="M167.5679,-144.5708C174.0862,-135.8797 182.0959,-125.2001 189.2961,-115.5998"/>
<polygon fill="#000000" stroke="#000000" points="192.1573,-117.6183 195.3573,-107.5182 186.5572,-113.4182 192.1573,-117.6183"/>
</g>
<!-- _9 -->
<g id="node10" class="node">
<title>_9</title>
<ellipse fill="none" stroke="#000000" cx="151.496" cy="-18" rx="31.6951" ry="18"/>
<text text-anchor="middle" x="151.496" y="-14.3" font-family="Times,serif" font-size="14.00" fill="#000000">Path</text>
</g>
<!-- _6&#45;&gt;_9 -->
<g id="edge10" class="edge">
<title>_6&#45;&gt;_9</title>
<path fill="none" stroke="#000000" d="M108.2941,-72.5708C115.3985,-63.5968 124.1813,-52.5028 131.9687,-42.666"/>
<polygon fill="#000000" stroke="#000000" points="134.7545,-44.7859 138.2174,-34.7729 129.2662,-40.4409 134.7545,-44.7859"/>
</g>
<!-- _7&#45;&gt;_8 -->
<g id="edge11" class="edge">
<title>_7&#45;&gt;_8</title>
<path fill="none" stroke="#000000" d="M247.1503,-144.5708C241.0563,-135.9675 233.582,-125.4156 226.8355,-115.8911"/>
<polygon fill="#000000" stroke="#000000" points="229.541,-113.6554 220.9047,-107.5182 223.8288,-117.7016 229.541,-113.6554"/>
</g>
<!-- _8&#45;&gt;_9 -->
<g id="edge12" class="edge">
<title>_8&#45;&gt;_9</title>
<path fill="none" stroke="#000000" d="M194.6979,-72.5708C187.5935,-63.5968 178.8107,-52.5028 171.0232,-42.666"/>
<polygon fill="#000000" stroke="#000000" points="173.7258,-40.4409 164.7745,-34.7729 168.2374,-44.7859 173.7258,-40.4409"/>
</g>
</g>
</svg>
