<?xml version="1.0" encoding="UTF-8" standalone="no"?>
<!DOCTYPE svg PUBLIC "-//W3C//DTD SVG 1.1//EN"
 "http://www.w3.org/Graphics/SVG/1.1/DTD/svg11.dtd">
<!-- Generated by graphviz version 2.40.1 (20161225.0304)
 -->
<!-- Title: %3 Pages: 1 -->
<svg width="307pt" height="332pt"
 viewBox="0.00 0.00 306.99 332.00" xmlns="http://www.w3.org/2000/svg" xmlns:xlink="http://www.w3.org/1999/xlink">
<g id="graph0" class="graph" transform="scale(1 1) rotate(0) translate(4 328)">
<title>%3</title>
<polygon fill="#ffffff" stroke="transparent" points="-4,4 -4,-328 302.9919,-328 302.9919,4 -4,4"/>
<!-- _0 -->
<g id="node1" class="node">
<title>_0</title>
<ellipse fill="none" stroke="#000000" cx="154.496" cy="-306" rx="34.394" ry="18"/>
<text text-anchor="middle" x="154.496" y="-302.3" font-family="Times,serif" font-size="14.00" fill="#000000">Edge</text>
</g>
<!-- _1 -->
<g id="node2" class="node">
<title>_1</title>
<ellipse fill="none" stroke="#000000" cx="45.496" cy="-234" rx="45.4919" ry="18"/>
<text text-anchor="middle" x="45.496" y="-230.3" font-family="Times,serif" font-size="14.00" fill="#000000">Edge_0</text>
</g>
<!-- _0&#45;&gt;_1 -->
<g id="edge1" class="edge">
<title>_0&#45;&gt;_1</title>
<path fill="none" stroke="#000000" d="M132.9611,-291.7751C117.1789,-281.3502 95.4892,-267.023 77.6576,-255.2444"/>
<polygon fill="#000000" stroke="#000000" points="79.5296,-252.2863 69.2566,-249.6951 75.6715,-258.1271 79.5296,-252.2863"/>
</g>
<!-- _2 -->
<g id="node3" class="node">
<title>_2</title>
<ellipse fill="none" stroke="#000000" cx="154.496" cy="-234" rx="45.4919" ry="18"/>
<text text-anchor="middle" x="154.496" y="-230.3" font-family="Times,serif" font-size="14.00" fill="#000000">Edge_1</text>
</g>
<!-- _0&#45;&gt;_2 -->
<g id="edge2" class="edge">
<title>_0&#45;&gt;_2</title>
<path fill="none" stroke="#000000" d="M154.496,-287.8314C154.496,-280.131 154.496,-270.9743 154.496,-262.4166"/>
<polygon fill="#000000" stroke="#000000" points="157.9961,-262.4132 154.496,-252.4133 150.9961,-262.4133 157.9961,-262.4132"/>
</g>
<!-- _3 -->
<g id="node4" class="node">
<title>_3</title>
<ellipse fill="none" stroke="#000000" cx="253.496" cy="-162" rx="45.4919" ry="18"/>
<text text-anchor="middle" x="253.496" y="-158.3" font-family="Times,serif" font-size="14.00" fill="#000000">Edge_2</text>
</g>
<!-- _0&#45;&gt;_3 -->
<g id="edge3" class="edge">
<title>_0&#45;&gt;_3</title>
<path fill="none" stroke="#000000" d="M172.7742,-290.4882C184.013,-280.3215 198.1855,-266.305 208.496,-252 222.6091,-232.4191 234.5963,-207.7579 242.6413,-189.2041"/>
<polygon fill="#000000" stroke="#000000" points="245.9223,-190.4312 246.5864,-179.8572 239.4732,-187.7092 245.9223,-190.4312"/>
</g>
<!-- _4 -->
<g id="node5" class="node">
<title>_4</title>
<ellipse fill="none" stroke="#000000" cx="45.496" cy="-162" rx="42.4939" ry="18"/>
<text text-anchor="middle" x="45.496" y="-158.3" font-family="Times,serif" font-size="14.00" fill="#000000">Path_0</text>
</g>
<!-- _1&#45;&gt;_4 -->
<g id="edge4" class="edge">
<title>_1&#45;&gt;_4</title>
<path fill="none" stroke="#000000" d="M45.496,-215.8314C45.496,-208.131 45.496,-198.9743 45.496,-190.4166"/>
<polygon fill="#000000" stroke="#000000" points="48.9961,-190.4132 45.496,-180.4133 41.9961,-190.4133 48.9961,-190.4132"/>
</g>
<!-- _5 -->
<g id="node6" class="node">
<title>_5</title>
<ellipse fill="none" stroke="#000000" cx="147.496" cy="-162" rx="42.4939" ry="18"/>
<text text-anchor="middle" x="147.496" y="-158.3" font-family="Times,serif" font-size="14.00" fill="#000000">Path_1</text>
</g>
<!-- _2&#45;&gt;_5 -->
<g id="edge5" class="edge">
<title>_2&#45;&gt;_5</title>
<path fill="none" stroke="#000000" d="M152.7296,-215.8314C151.9809,-208.131 151.0907,-198.9743 150.2587,-190.4166"/>
<polygon fill="#000000" stroke="#000000" points="153.7375,-190.0276 149.2861,-180.4133 146.7703,-190.7051 153.7375,-190.0276"/>
</g>
<!-- _7 -->
<g id="node8" class="node">
<title>_7</title>
<ellipse fill="none" stroke="#000000" cx="244.496" cy="-90" rx="42.4939" ry="18"/>
<text text-anchor="middle" x="244.496" y="-86.3" font-family="Times,serif" font-size="14.00" fill="#000000">Path_2</text>
</g>
<!-- _3&#45;&gt;_7 -->
<g id="edge6" class="edge">
<title>_3&#45;&gt;_7</title>
<path fill="none" stroke="#000000" d="M251.2249,-143.8314C250.2623,-136.131 249.1178,-126.9743 248.048,-118.4166"/>
<polygon fill="#000000" stroke="#000000" points="251.511,-117.9019 246.7976,-108.4133 244.5651,-118.7702 251.511,-117.9019"/>
</g>
<!-- _6 -->
<g id="node7" class="node">
<title>_6</title>
<ellipse fill="none" stroke="#000000" cx="80.496" cy="-90" rx="48.1917" ry="18"/>
<text text-anchor="middle" x="80.496" y="-86.3" font-family="Times,serif" font-size="14.00" fill="#000000">Path_01</text>
</g>
<!-- _4&#45;&gt;_6 -->
<g id="edge7" class="edge">
<title>_4&#45;&gt;_6</title>
<path fill="none" stroke="#000000" d="M54.1477,-144.2022C58.1441,-135.981 62.976,-126.041 67.4049,-116.9301"/>
<polygon fill="#000000" stroke="#000000" points="70.5983,-118.3664 71.8225,-107.8425 64.3027,-115.306 70.5983,-118.3664"/>
</g>
<!-- _5&#45;&gt;_6 -->
<g id="edge8" class="edge">
<title>_5&#45;&gt;_6</title>
<path fill="none" stroke="#000000" d="M131.6179,-144.937C123.3126,-136.0119 112.9871,-124.9159 103.7946,-115.0373"/>
<polygon fill="#000000" stroke="#000000" points="106.1001,-112.3771 96.7255,-107.4407 100.9756,-117.1457 106.1001,-112.3771"/>
</g>
<!-- _8 -->
<g id="node9" class="node">
<title>_8</title>
<ellipse fill="none" stroke="#000000" cx="156.496" cy="-18" rx="31.6951" ry="18"/>
<text text-anchor="middle" x="156.496" y="-14.3" font-family="Times,serif" font-size="14.00" fill="#000000">Path</text>
</g>
<!-- _5&#45;&gt;_8 -->
<g id="edge9" class="edge">
<title>_5&#45;&gt;_8</title>
<path fill="none" stroke="#000000" d="M148.6358,-143.7623C150.1709,-119.201 152.918,-75.2474 154.7238,-46.3541"/>
<polygon fill="#000000" stroke="#000000" points="158.2347,-46.2885 155.3654,-36.0896 151.2483,-45.8518 158.2347,-46.2885"/>
</g>
<!-- _6&#45;&gt;_8 -->
<g id="edge10" class="edge">
<title>_6&#45;&gt;_8</title>
<path fill="none" stroke="#000000" d="M98.5069,-72.937C108.7783,-63.2062 121.7736,-50.8948 132.8576,-40.3943"/>
<polygon fill="#000000" stroke="#000000" points="135.3163,-42.8862 140.1687,-33.4679 130.5021,-37.8045 135.3163,-42.8862"/>
</g>
<!-- _7&#45;&gt;_8 -->
<g id="edge11" class="edge">
<title>_7&#45;&gt;_8</title>
<path fill="none" stroke="#000000" d="M224.9659,-74.0209C212.5538,-63.8655 196.3325,-50.5935 182.7943,-39.5168"/>
<polygon fill="#000000" stroke="#000000" points="184.7256,-36.5748 174.7697,-32.9512 180.2929,-41.9925 184.7256,-36.5748"/>
</g>
</g>
</svg>
