<?xml version="1.0" encoding="UTF-8" standalone="no"?>
<!DOCTYPE svg PUBLIC "-//W3C//DTD SVG 1.1//EN"
 "http://www.w3.org/Graphics/SVG/1.1/DTD/svg11.dtd">
<!-- Generated by graphviz version 2.40.1 (20161225.0304)
 -->
<!-- Title: %3 Pages: 1 -->
<svg width="317pt" height="260pt"
 viewBox="0.00 0.00 316.99 260.00" xmlns="http://www.w3.org/2000/svg" xmlns:xlink="http://www.w3.org/1999/xlink">
<g id="graph0" class="graph" transform="scale(1 1) rotate(0) translate(4 256)">
<title>%3</title>
<polygon fill="#ffffff" stroke="transparent" points="-4,4 -4,-256 312.9919,-256 312.9919,4 -4,4"/>
<!-- _0 -->
<g id="node1" class="node">
<title>_0</title>
<ellipse fill="none" stroke="#000000" cx="154.496" cy="-234" rx="34.394" ry="18"/>
<text text-anchor="middle" x="154.496" y="-230.3" font-family="Times,serif" font-size="14.00" fill="#000000">Edge</text>
</g>
<!-- _1 -->
<g id="node2" class="node">
<title>_1</title>
<ellipse fill="none" stroke="#000000" cx="45.496" cy="-162" rx="45.4919" ry="18"/>
<text text-anchor="middle" x="45.496" y="-158.3" font-family="Times,serif" font-size="14.00" fill="#000000">Edge_0</text>
</g>
<!-- _0&#45;&gt;_1 -->
<g id="edge1" class="edge">
<title>_0&#45;&gt;_1</title>
<path fill="none" stroke="#000000" d="M132.9611,-219.7751C117.1789,-209.3502 95.4892,-195.023 77.6576,-183.2444"/>
<polygon fill="#000000" stroke="#000000" points="79.5296,-180.2863 69.2566,-177.6951 75.6715,-186.1271 79.5296,-180.2863"/>
</g>
<!-- _2 -->
<g id="node3" class="node">
<title>_2</title>
<ellipse fill="none" stroke="#000000" cx="154.496" cy="-162" rx="45.4919" ry="18"/>
<text text-anchor="middle" x="154.496" y="-158.3" font-family="Times,serif" font-size="14.00" fill="#000000">Edge_1</text>
</g>
<!-- _0&#45;&gt;_2 -->
<g id="edge2" class="edge">
<title>_0&#45;&gt;_2</title>
<path fill="none" stroke="#000000" d="M154.496,-215.8314C154.496,-208.131 154.496,-198.9743 154.496,-190.4166"/>
<polygon fill="#000000" stroke="#000000" points="157.9961,-190.4132 154.496,-180.4133 150.9961,-190.4133 157.9961,-190.4132"/>
</g>
<!-- _3 -->
<g id="node4" class="node">
<title>_3</title>
<ellipse fill="none" stroke="#000000" cx="263.496" cy="-162" rx="45.4919" ry="18"/>
<text text-anchor="middle" x="263.496" y="-158.3" font-family="Times,serif" font-size="14.00" fill="#000000">Edge_2</text>
</g>
<!-- _0&#45;&gt;_3 -->
<g id="edge3" class="edge">
<title>_0&#45;&gt;_3</title>
<path fill="none" stroke="#000000" d="M176.0309,-219.7751C191.813,-209.3502 213.5027,-195.023 231.3344,-183.2444"/>
<polygon fill="#000000" stroke="#000000" points="233.3205,-186.1271 239.7354,-177.6951 229.4623,-180.2863 233.3205,-186.1271"/>
</g>
<!-- _4 -->
<g id="node5" class="node">
<title>_4</title>
<ellipse fill="none" stroke="#000000" cx="49.496" cy="-90" rx="42.4939" ry="18"/>
<text text-anchor="middle" x="49.496" y="-86.3" font-family="Times,serif" font-size="14.00" fill="#000000">Path_0</text>
</g>
<!-- _1&#45;&gt;_4 -->
<g id="edge4" class="edge">
<title>_1&#45;&gt;_4</title>
<path fill="none" stroke="#000000" d="M46.5053,-143.8314C46.9331,-136.131 47.4418,-126.9743 47.9173,-118.4166"/>
<polygon fill="#000000" stroke="#000000" points="51.4128,-118.592 48.473,-108.4133 44.4236,-118.2037 51.4128,-118.592"/>
</g>
<!-- _5 -->
<g id="node6" class="node">
<title>_5</title>
<ellipse fill="none" stroke="#000000" cx="154.496" cy="-90" rx="42.4939" ry="18"/>
<text text-anchor="middle" x="154.496" y="-86.3" font-family="Times,serif" font-size="14.00" fill="#000000">Path_1</text>
</g>
<!-- _2&#45;&gt;_5 -->
<g id="edge5" class="edge">
<title>_2&#45;&gt;_5</title>
<path fill="none" stroke="#000000" d="M154.496,-143.8314C154.496,-136.131 154.496,-126.9743 154.496,-118.4166"/>
<polygon fill="#000000" stroke="#000000" points="157.9961,-118.4132 154.496,-108.4133 150.9961,-118.4133 157.9961,-118.4132"/>
</g>
<!-- _6 -->
<g id="node7" class="node">
<title>_6</title>
<ellipse fill="none" stroke="#000000" cx="259.496" cy="-90" rx="42.4939" ry="18"/>
<text text-anchor="middle" x="259.496" y="-86.3" font-family="Times,serif" font-size="14.00" fill="#000000">Path_2</text>
</g>
<!-- _3&#45;&gt;_6 -->
<g id="edge6" class="edge">
<title>_3&#45;&gt;_6</title>
<path fill="none" stroke="#000000" d="M262.4866,-143.8314C262.0588,-136.131 261.5501,-126.9743 261.0747,-118.4166"/>
<polygon fill="#000000" stroke="#000000" points="264.5683,-118.2037 260.5189,-108.4133 257.5791,-118.592 264.5683,-118.2037"/>
</g>
<!-- _7 -->
<g id="node8" class="node">
<title>_7</title>
<ellipse fill="none" stroke="#000000" cx="154.496" cy="-18" rx="31.6951" ry="18"/>
<text text-anchor="middle" x="154.496" y="-14.3" font-family="Times,serif" font-size="14.00" fill="#000000">Path</text>
</g>
<!-- _4&#45;&gt;_7 -->
<g id="edge7" class="edge">
<title>_4&#45;&gt;_7</title>
<path fill="none" stroke="#000000" d="M72.0211,-74.5542C87.7232,-63.787 108.8052,-49.3308 125.7237,-37.7295"/>
<polygon fill="#000000" stroke="#000000" points="127.8731,-40.4996 134.141,-31.9577 123.9143,-34.7265 127.8731,-40.4996"/>
</g>
<!-- _5&#45;&gt;_7 -->
<g id="edge8" class="edge">
<title>_5&#45;&gt;_7</title>
<path fill="none" stroke="#000000" d="M154.496,-71.8314C154.496,-64.131 154.496,-54.9743 154.496,-46.4166"/>
<polygon fill="#000000" stroke="#000000" points="157.9961,-46.4132 154.496,-36.4133 150.9961,-46.4133 157.9961,-46.4132"/>
</g>
<!-- _6&#45;&gt;_7 -->
<g id="edge9" class="edge">
<title>_6&#45;&gt;_7</title>
<path fill="none" stroke="#000000" d="M236.9708,-74.5542C221.2687,-63.787 200.1868,-49.3308 183.2682,-37.7295"/>
<polygon fill="#000000" stroke="#000000" points="185.0776,-34.7265 174.8509,-31.9577 181.1189,-40.4996 185.0776,-34.7265"/>
</g>
</g>
</svg>
